<svg height="511pt" viewBox="0 -62 511.99852 511" width="511pt" xmlns="http://www.w3.org/2000/svg"><path d="m113.03125 169.320312c0 4.140626 3.359375 7.5 7.5 7.5 4.144531 0 7.5-3.359374 7.5-7.5v-16.390624c0-4.140626-3.355469-7.5-7.5-7.5-4.140625 0-7.5 3.359374-7.5 7.5zm0 0"/><path d="m309.152344 169.320312v-16.390624c0-4.140626-3.355469-7.5-7.5-7.5-4.140625 0-7.5 3.359374-7.5 7.5v16.390624c0 4.140626 3.359375 7.5 7.5 7.5 4.144531 0 7.5-3.359374 7.5-7.5zm0 0"/><path d="m211.09375 185.570312c10.875 0 21.082031-4.539062 28-12.453124 2.722656-3.121094 2.40625-7.859376-.710938-10.582032-3.121093-2.726562-7.859374-2.410156-10.585937.710938-4.066406 4.652344-10.15625 7.324218-16.703125 7.324218s-12.636719-2.671874-16.707031-7.324218c-2.722657-3.121094-7.460938-3.4375-10.582031-.710938-3.117188 2.726563-3.4375 7.464844-.710938 10.582032 6.917969 7.914062 17.125 12.453124 28 12.453124zm0 0"/><path d="m473.746094 70.039062c-14.03125-10.578124-31.460938-18.25-51.867188-22.867187.109375-2.640625.203125-5.292969.289063-7.964844.664062-20.863281-16.5625-38.707031-37.417969-38.707031h-246.8125c-4.144531 0-7.5 3.355469-7.5 7.5 0 4.140625 3.355469 7.5 7.5 7.5h246.808594c12.589844 0 22.828125 10.683594 22.429687 23.226562-.640625 20.175782-1.949219 40.332032-3.960937 60.414063-.003906.039063 0 .074219-.003906.109375-7.003907 69.40625-22.617188 139-52.328126 202.390625-.042968.085937-.066406.179687-.105468.265625-9.488282 20.199219-18.765625 36.042969-26.550782 47.839844-9.425781 14.285156-25.238281 22.8125-42.304687 22.8125h-141.660156c-17.0625 0-32.875-8.527344-42.300781-22.8125-28.671876-43.445313-77.570313-141.628906-82.953126-311.015625-.398437-12.550781 9.863282-23.230469 22.429688-23.230469h70.5c4.140625 0 7.5-3.359375 7.5-7.5 0-4.144531-3.359375-7.5-7.5-7.5 0 0-70.40625 0-70.5 0-20.90625 0-38.082031 17.867188-37.4179688 38.703125 5.4960938 173.082031 55.8789068 274.035156 85.4218748 318.804687 12.210938 18.503907 32.703125 29.550782 54.824219 29.550782h141.65625c22.121094 0 42.613281-11.046875 54.824219-29.550782 7.710937-11.6875 16.84375-27.210937 26.226562-46.839843 27.785156-7.535157 53.488282-20.160157 76.433594-37.585938 3.300781-2.503906 3.941406-7.207031 1.4375-10.507812-2.503906-3.296875-7.210938-3.941407-10.507812-1.4375-18.023438 13.683593-37.863282 24.207031-59.15625 31.386719 5.238281-12.238282 10.445312-25.761719 15.425781-40.632813 12.160156-6.371094 23.535156-14.144531 33.859375-23.128906 27.855468-24.246094 45.15625-55.734375 45.15625-82.175781 0-16.648438-6.660156-30.113282-19.792969-40.015626-7.171875-5.40625-16.257813-9.707031-27.066406-12.824218.003906-.035156.003906-.066406.007812-.097656.957031-10.285157 1.753907-20.867188 2.371094-31.757813 17.203125 4.1875 31.832031 10.769531 43.578125 19.625 20.816406 15.695313 32.28125 38.804687 32.28125 65.070313 0 31.75-16.441406 66.617187-45.105469 95.660156-2.910156 2.949218-2.878906 7.699218.066407 10.609375 2.949218 2.910156 7.699218 2.875 10.609374-.070313 31.414063-31.828125 49.429688-70.539062 49.429688-106.199218 0-31.085938-13.585938-58.449219-38.253906-77.046876zm-36.949219 49.011719c9.433594 7.109375 13.824219 16.019531 13.824219 28.035157 0 22.230468-15.328125 49.382812-40.003906 70.863281-5.460938 4.753906-11.253907 9.121093-17.3125 13.101562 10.046874-34.226562 18.648437-74.609375 23.898437-121.605469 7.871094 2.5 14.4375 5.71875 19.59375 9.605469zm0 0"/></svg>